<svg version="1" xmlns="http://www.w3.org/2000/svg" width="557.333" height="557.333" viewBox="0 0 418.000000 418.000000"><path d="M44 .8c-.7.3-1 55.3-1 162.5v162.2l16 10c8.9 5.5 17.6 10.9 19.5 12 4.1 2.4 8.4 5 24 14.5 6.6 4 13.8 8.3 16 9.5 2.2 1.3 8.3 4.6 13.5 7.5 15.2 8.5 57.9 29.6 73.3 36.2l4.7 2 4.9-2.1c12.6-5.4 56.5-26.7 60.1-29.2 1.4-.9 3-1.8 3.5-1.9 1.8-.3 15.5-8 37-20.9 11.6-6.9 22.2-13.2 23.6-14.1 1.5-.8 10.6-6.5 20.3-12.5l17.6-11V163.2C377 9.4 376.9 1 375.3.9 367.9.7 44.8.6 44 .8z"/></svg>